<mxfile host="app.diagrams.net" modified="2021-11-16T13:03:02.598Z" agent="5.0 (Macintosh; Intel Mac OS X 10_15_7) AppleWebKit/537.36 (KHTML, like Gecko) Chrome/95.0.4638.54 Safari/537.36" etag="y_O-oHAAu6fxa1Ecg2pJ" version="15.7.3" type="github">
  <diagram id="3ZC0mH_smzfq5iWnEpYT" name="Page-1">
    <mxGraphModel dx="815" dy="476" grid="1" gridSize="10" guides="1" tooltips="1" connect="1" arrows="1" fold="1" page="1" pageScale="1" pageWidth="827" pageHeight="1169" math="0" shadow="0">
      <root>
        <mxCell id="0" />
        <mxCell id="1" parent="0" />
        <mxCell id="DlUK5c7yhlgR1j1lUI_1-8" style="edgeStyle=orthogonalEdgeStyle;rounded=0;orthogonalLoop=1;jettySize=auto;html=1;exitX=0.5;exitY=1;exitDx=0;exitDy=0;entryX=0.5;entryY=0;entryDx=0;entryDy=0;fontColor=#CC00CC;" edge="1" parent="1" source="DlUK5c7yhlgR1j1lUI_1-1" target="DlUK5c7yhlgR1j1lUI_1-7">
          <mxGeometry relative="1" as="geometry" />
        </mxCell>
        <mxCell id="DlUK5c7yhlgR1j1lUI_1-1" value="&lt;b&gt;&lt;font color=&quot;#cc00cc&quot;&gt;TencentCloud&lt;/font&gt;&lt;/b&gt;" style="rounded=1;whiteSpace=wrap;html=1;" vertex="1" parent="1">
          <mxGeometry x="35" y="110" width="90" height="50" as="geometry" />
        </mxCell>
        <mxCell id="DlUK5c7yhlgR1j1lUI_1-13" style="edgeStyle=orthogonalEdgeStyle;rounded=0;orthogonalLoop=1;jettySize=auto;html=1;exitX=0.5;exitY=1;exitDx=0;exitDy=0;entryX=0.5;entryY=0;entryDx=0;entryDy=0;fontColor=#CC00CC;" edge="1" parent="1" source="DlUK5c7yhlgR1j1lUI_1-3" target="DlUK5c7yhlgR1j1lUI_1-12">
          <mxGeometry relative="1" as="geometry" />
        </mxCell>
        <mxCell id="DlUK5c7yhlgR1j1lUI_1-3" value="&lt;b&gt;&lt;font color=&quot;#cc00cc&quot;&gt;UcloudCloud&lt;/font&gt;&lt;/b&gt;" style="rounded=1;whiteSpace=wrap;html=1;" vertex="1" parent="1">
          <mxGeometry x="230" y="110" width="80" height="50" as="geometry" />
        </mxCell>
        <mxCell id="DlUK5c7yhlgR1j1lUI_1-48" style="edgeStyle=orthogonalEdgeStyle;rounded=0;orthogonalLoop=1;jettySize=auto;html=1;exitX=0.5;exitY=1;exitDx=0;exitDy=0;entryX=0.401;entryY=-0.014;entryDx=0;entryDy=0;entryPerimeter=0;fontColor=#000000;" edge="1" parent="1" source="DlUK5c7yhlgR1j1lUI_1-4" target="DlUK5c7yhlgR1j1lUI_1-11">
          <mxGeometry relative="1" as="geometry" />
        </mxCell>
        <mxCell id="DlUK5c7yhlgR1j1lUI_1-4" value="&lt;b&gt;&lt;font color=&quot;#cc00cc&quot;&gt;HuaWeiCloud&lt;/font&gt;&lt;/b&gt;" style="rounded=1;whiteSpace=wrap;html=1;" vertex="1" parent="1">
          <mxGeometry x="140" y="110" width="80" height="50" as="geometry" />
        </mxCell>
        <mxCell id="DlUK5c7yhlgR1j1lUI_1-14" style="edgeStyle=orthogonalEdgeStyle;rounded=0;orthogonalLoop=1;jettySize=auto;html=1;exitX=0.5;exitY=1;exitDx=0;exitDy=0;entryX=0.5;entryY=0;entryDx=0;entryDy=0;fontColor=#CC00CC;" edge="1" parent="1" source="DlUK5c7yhlgR1j1lUI_1-5" target="DlUK5c7yhlgR1j1lUI_1-12">
          <mxGeometry relative="1" as="geometry" />
        </mxCell>
        <mxCell id="DlUK5c7yhlgR1j1lUI_1-5" value="&lt;b&gt;&lt;font color=&quot;#cc00cc&quot;&gt;AliCloud&lt;/font&gt;&lt;/b&gt;" style="rounded=1;whiteSpace=wrap;html=1;" vertex="1" parent="1">
          <mxGeometry x="320" y="110" width="90" height="50" as="geometry" />
        </mxCell>
        <mxCell id="DlUK5c7yhlgR1j1lUI_1-32" style="edgeStyle=orthogonalEdgeStyle;rounded=0;orthogonalLoop=1;jettySize=auto;html=1;exitX=0;exitY=0.5;exitDx=0;exitDy=0;entryX=1;entryY=0.5;entryDx=0;entryDy=0;fontColor=#000000;" edge="1" parent="1" source="DlUK5c7yhlgR1j1lUI_1-6" target="DlUK5c7yhlgR1j1lUI_1-20">
          <mxGeometry relative="1" as="geometry" />
        </mxCell>
        <mxCell id="DlUK5c7yhlgR1j1lUI_1-6" value="&lt;b&gt;&lt;font color=&quot;#cc00cc&quot;&gt;Redis(String)&lt;/font&gt;&lt;/b&gt;" style="rounded=1;whiteSpace=wrap;html=1;" vertex="1" parent="1">
          <mxGeometry x="300" y="340" width="100" height="50" as="geometry" />
        </mxCell>
        <mxCell id="DlUK5c7yhlgR1j1lUI_1-19" style="edgeStyle=orthogonalEdgeStyle;rounded=0;orthogonalLoop=1;jettySize=auto;html=1;exitX=0.5;exitY=1;exitDx=0;exitDy=0;entryX=0.5;entryY=0;entryDx=0;entryDy=0;fontColor=#CC00CC;" edge="1" parent="1" source="DlUK5c7yhlgR1j1lUI_1-7" target="DlUK5c7yhlgR1j1lUI_1-6">
          <mxGeometry relative="1" as="geometry" />
        </mxCell>
        <mxCell id="DlUK5c7yhlgR1j1lUI_1-7" value="&lt;b&gt;&lt;font color=&quot;#cc00cc&quot;&gt;SDK&lt;/font&gt;&lt;/b&gt;" style="rounded=1;whiteSpace=wrap;html=1;" vertex="1" parent="1">
          <mxGeometry x="30" y="210" width="100" height="50" as="geometry" />
        </mxCell>
        <mxCell id="DlUK5c7yhlgR1j1lUI_1-16" style="edgeStyle=orthogonalEdgeStyle;rounded=0;orthogonalLoop=1;jettySize=auto;html=1;exitX=0.5;exitY=1;exitDx=0;exitDy=0;entryX=0.5;entryY=0;entryDx=0;entryDy=0;fontColor=#CC00CC;" edge="1" parent="1" source="DlUK5c7yhlgR1j1lUI_1-11" target="DlUK5c7yhlgR1j1lUI_1-6">
          <mxGeometry relative="1" as="geometry" />
        </mxCell>
        <mxCell id="DlUK5c7yhlgR1j1lUI_1-11" value="&lt;b&gt;&lt;font color=&quot;#cc00cc&quot;&gt;API&lt;/font&gt;&lt;/b&gt;" style="rounded=1;whiteSpace=wrap;html=1;" vertex="1" parent="1">
          <mxGeometry x="140" y="210" width="100" height="50" as="geometry" />
        </mxCell>
        <mxCell id="DlUK5c7yhlgR1j1lUI_1-17" style="edgeStyle=orthogonalEdgeStyle;rounded=0;orthogonalLoop=1;jettySize=auto;html=1;exitX=0.5;exitY=1;exitDx=0;exitDy=0;fontColor=#CC00CC;" edge="1" parent="1" source="DlUK5c7yhlgR1j1lUI_1-12">
          <mxGeometry relative="1" as="geometry">
            <mxPoint x="350" y="340" as="targetPoint" />
          </mxGeometry>
        </mxCell>
        <mxCell id="DlUK5c7yhlgR1j1lUI_1-12" value="&lt;b&gt;&lt;font color=&quot;#cc00cc&quot;&gt;Spider&lt;/font&gt;&lt;/b&gt;" style="rounded=1;whiteSpace=wrap;html=1;" vertex="1" parent="1">
          <mxGeometry x="300" y="210" width="100" height="50" as="geometry" />
        </mxCell>
        <mxCell id="DlUK5c7yhlgR1j1lUI_1-26" style="edgeStyle=orthogonalEdgeStyle;rounded=0;orthogonalLoop=1;jettySize=auto;html=1;exitX=0.5;exitY=1;exitDx=0;exitDy=0;entryX=0.5;entryY=0;entryDx=0;entryDy=0;fontColor=#000000;" edge="1" parent="1" source="DlUK5c7yhlgR1j1lUI_1-20" target="DlUK5c7yhlgR1j1lUI_1-24">
          <mxGeometry relative="1" as="geometry" />
        </mxCell>
        <mxCell id="DlUK5c7yhlgR1j1lUI_1-27" style="edgeStyle=orthogonalEdgeStyle;rounded=0;orthogonalLoop=1;jettySize=auto;html=1;exitX=0.5;exitY=1;exitDx=0;exitDy=0;entryX=0.5;entryY=0;entryDx=0;entryDy=0;fontColor=#000000;" edge="1" parent="1" source="DlUK5c7yhlgR1j1lUI_1-20" target="DlUK5c7yhlgR1j1lUI_1-25">
          <mxGeometry relative="1" as="geometry" />
        </mxCell>
        <mxCell id="DlUK5c7yhlgR1j1lUI_1-20" value="&lt;b&gt;&lt;font color=&quot;#cc00cc&quot;&gt;Mysql&lt;/font&gt;&lt;/b&gt;" style="rounded=1;whiteSpace=wrap;html=1;" vertex="1" parent="1">
          <mxGeometry x="150" y="340" width="100" height="50" as="geometry" />
        </mxCell>
        <mxCell id="DlUK5c7yhlgR1j1lUI_1-21" value="&lt;font color=&quot;#000000&quot;&gt;数据缓存&lt;/font&gt;" style="text;html=1;strokeColor=none;fillColor=none;align=center;verticalAlign=middle;whiteSpace=wrap;rounded=0;fontColor=#CC00CC;" vertex="1" parent="1">
          <mxGeometry x="354" y="310" width="60" height="30" as="geometry" />
        </mxCell>
        <mxCell id="DlUK5c7yhlgR1j1lUI_1-23" value="&lt;font color=&quot;#000000&quot;&gt;持久化存储&lt;/font&gt;" style="text;html=1;strokeColor=none;fillColor=none;align=center;verticalAlign=middle;whiteSpace=wrap;rounded=0;fontColor=#CC00CC;" vertex="1" parent="1">
          <mxGeometry x="354" y="390" width="66" height="30" as="geometry" />
        </mxCell>
        <mxCell id="DlUK5c7yhlgR1j1lUI_1-29" style="edgeStyle=orthogonalEdgeStyle;rounded=0;orthogonalLoop=1;jettySize=auto;html=1;exitX=0.5;exitY=1;exitDx=0;exitDy=0;entryX=0.5;entryY=0;entryDx=0;entryDy=0;fontColor=#000000;" edge="1" parent="1" source="DlUK5c7yhlgR1j1lUI_1-24" target="DlUK5c7yhlgR1j1lUI_1-28">
          <mxGeometry relative="1" as="geometry" />
        </mxCell>
        <mxCell id="DlUK5c7yhlgR1j1lUI_1-24" value="&lt;b&gt;&lt;font color=&quot;#cc00cc&quot;&gt;ORM&lt;/font&gt;&lt;/b&gt;" style="rounded=1;whiteSpace=wrap;html=1;" vertex="1" parent="1">
          <mxGeometry x="90" y="430" width="100" height="50" as="geometry" />
        </mxCell>
        <mxCell id="DlUK5c7yhlgR1j1lUI_1-30" style="edgeStyle=orthogonalEdgeStyle;rounded=0;orthogonalLoop=1;jettySize=auto;html=1;exitX=0.5;exitY=1;exitDx=0;exitDy=0;entryX=0.5;entryY=0;entryDx=0;entryDy=0;fontColor=#000000;" edge="1" parent="1" source="DlUK5c7yhlgR1j1lUI_1-25" target="DlUK5c7yhlgR1j1lUI_1-28">
          <mxGeometry relative="1" as="geometry" />
        </mxCell>
        <mxCell id="DlUK5c7yhlgR1j1lUI_1-25" value="&lt;font color=&quot;#cc00cc&quot;&gt;&lt;b&gt;原生SQL&lt;/b&gt;&lt;/font&gt;" style="rounded=1;whiteSpace=wrap;html=1;" vertex="1" parent="1">
          <mxGeometry x="210" y="430" width="100" height="50" as="geometry" />
        </mxCell>
        <mxCell id="DlUK5c7yhlgR1j1lUI_1-33" style="edgeStyle=orthogonalEdgeStyle;rounded=0;orthogonalLoop=1;jettySize=auto;html=1;exitX=1;exitY=0.5;exitDx=0;exitDy=0;entryX=0;entryY=0.5;entryDx=0;entryDy=0;fontColor=#000000;" edge="1" parent="1" source="DlUK5c7yhlgR1j1lUI_1-28" target="DlUK5c7yhlgR1j1lUI_1-31">
          <mxGeometry relative="1" as="geometry" />
        </mxCell>
        <mxCell id="DlUK5c7yhlgR1j1lUI_1-28" value="&lt;b&gt;&lt;font color=&quot;#cc00cc&quot;&gt;REST framework&lt;/font&gt;&lt;/b&gt;" style="rounded=1;whiteSpace=wrap;html=1;" vertex="1" parent="1">
          <mxGeometry x="150" y="520" width="100" height="50" as="geometry" />
        </mxCell>
        <mxCell id="DlUK5c7yhlgR1j1lUI_1-37" style="edgeStyle=orthogonalEdgeStyle;rounded=0;orthogonalLoop=1;jettySize=auto;html=1;exitX=1;exitY=0.5;exitDx=0;exitDy=0;entryX=0;entryY=0.5;entryDx=0;entryDy=0;fontColor=#000000;" edge="1" parent="1" source="DlUK5c7yhlgR1j1lUI_1-31" target="DlUK5c7yhlgR1j1lUI_1-34">
          <mxGeometry relative="1" as="geometry" />
        </mxCell>
        <mxCell id="DlUK5c7yhlgR1j1lUI_1-31" value="&lt;b&gt;&lt;font color=&quot;#cc00cc&quot;&gt;Swagger&lt;/font&gt;&lt;/b&gt;" style="rounded=1;whiteSpace=wrap;html=1;" vertex="1" parent="1">
          <mxGeometry x="290" y="520" width="100" height="50" as="geometry" />
        </mxCell>
        <mxCell id="DlUK5c7yhlgR1j1lUI_1-34" value="&lt;b&gt;&lt;font color=&quot;#cc00cc&quot;&gt;API&lt;/font&gt;&lt;/b&gt;" style="rounded=1;whiteSpace=wrap;html=1;" vertex="1" parent="1">
          <mxGeometry x="430" y="520" width="100" height="50" as="geometry" />
        </mxCell>
        <mxCell id="DlUK5c7yhlgR1j1lUI_1-39" value="&lt;font color=&quot;#000000&quot;&gt;对外&amp;amp;对内提供Rest full风格的API&lt;/font&gt;" style="text;html=1;strokeColor=none;fillColor=none;align=center;verticalAlign=middle;whiteSpace=wrap;rounded=0;fontColor=#CC00CC;" vertex="1" parent="1">
          <mxGeometry x="437" y="480" width="93" height="30" as="geometry" />
        </mxCell>
        <mxCell id="DlUK5c7yhlgR1j1lUI_1-40" value="&lt;font color=&quot;#000000&quot;&gt;API后台管理系统替换DRF原生API管理系统&lt;/font&gt;" style="text;html=1;strokeColor=none;fillColor=none;align=center;verticalAlign=middle;whiteSpace=wrap;rounded=0;fontColor=#CC00CC;" vertex="1" parent="1">
          <mxGeometry x="307" y="480" width="93" height="30" as="geometry" />
        </mxCell>
        <mxCell id="DlUK5c7yhlgR1j1lUI_1-42" style="edgeStyle=orthogonalEdgeStyle;rounded=0;orthogonalLoop=1;jettySize=auto;html=1;exitX=1;exitY=0.5;exitDx=0;exitDy=0;fontColor=#000000;" edge="1" parent="1" source="DlUK5c7yhlgR1j1lUI_1-41" target="DlUK5c7yhlgR1j1lUI_1-34">
          <mxGeometry relative="1" as="geometry">
            <Array as="points">
              <mxPoint x="450" y="635" />
            </Array>
          </mxGeometry>
        </mxCell>
        <mxCell id="DlUK5c7yhlgR1j1lUI_1-41" value="&lt;b&gt;&lt;font color=&quot;#cc00cc&quot;&gt;WEB-UI&lt;/font&gt;&lt;/b&gt;" style="rounded=1;whiteSpace=wrap;html=1;" vertex="1" parent="1">
          <mxGeometry x="150" y="610" width="100" height="50" as="geometry" />
        </mxCell>
        <mxCell id="DlUK5c7yhlgR1j1lUI_1-43" value="&lt;font color=&quot;#000000&quot;&gt;调用&lt;/font&gt;" style="text;html=1;strokeColor=none;fillColor=none;align=center;verticalAlign=middle;whiteSpace=wrap;rounded=0;fontColor=#CC00CC;" vertex="1" parent="1">
          <mxGeometry x="380" y="610" width="93" height="30" as="geometry" />
        </mxCell>
        <mxCell id="DlUK5c7yhlgR1j1lUI_1-45" style="edgeStyle=orthogonalEdgeStyle;rounded=0;orthogonalLoop=1;jettySize=auto;html=1;exitX=0.25;exitY=0;exitDx=0;exitDy=0;entryX=0.647;entryY=1.02;entryDx=0;entryDy=0;entryPerimeter=0;fontColor=#000000;" edge="1" parent="1" source="DlUK5c7yhlgR1j1lUI_1-44" target="DlUK5c7yhlgR1j1lUI_1-34">
          <mxGeometry relative="1" as="geometry" />
        </mxCell>
        <mxCell id="DlUK5c7yhlgR1j1lUI_1-44" value="&lt;b&gt;&lt;font color=&quot;#cc00cc&quot;&gt;财务系统&lt;/font&gt;&lt;/b&gt;" style="rounded=1;whiteSpace=wrap;html=1;" vertex="1" parent="1">
          <mxGeometry x="473" y="610" width="100" height="50" as="geometry" />
        </mxCell>
        <mxCell id="DlUK5c7yhlgR1j1lUI_1-46" value="&lt;font color=&quot;#000000&quot;&gt;调用&lt;/font&gt;" style="text;html=1;strokeColor=none;fillColor=none;align=center;verticalAlign=middle;whiteSpace=wrap;rounded=0;fontColor=#CC00CC;" vertex="1" parent="1">
          <mxGeometry x="460" y="580" width="93" height="30" as="geometry" />
        </mxCell>
      </root>
    </mxGraphModel>
  </diagram>
</mxfile>
